<svg xmlns="http://www.w3.org/2000/svg" width="18" height="15" viewBox="0 0 18 15" fill="none"><path d="M9 0L18 6.85863L17.2027 7.92236L15.5607 6.6703V15H2.43928V6.6703L0.797347 7.92236L0 6.85863L9 0ZM5.43709 7.67065C5.43709 8.36068 5.80216 9.09622 6.53229 9.87726C7.26228 10.6585 8.08485 11.4709 9 12.3147C9.92637 11.4709 10.7546 10.6588 11.4845 9.87815C12.2147 9.0974 12.5797 8.36231 12.5797 7.67288C12.5797 7.1004 12.3874 6.62486 12.0026 6.24628C11.6177 5.86769 11.1559 5.67839 10.6172 5.67839C10.2838 5.67839 9.97995 5.74769 9.70572 5.88629C9.43148 6.02474 9.19624 6.20292 9 6.42082C8.81499 6.20292 8.57946 6.02474 8.29341 5.88629C8.00751 5.74769 7.71038 5.67839 7.40203 5.67839C6.86274 5.67839 6.40042 5.86717 6.01509 6.24472C5.62976 6.62242 5.43709 7.09773 5.43709 7.67065ZM14.2486 13.6659V5.66127L9 1.65896L3.75142 5.66127V13.6659H14.2486Z" fill="#5F6368"></path></svg>