<svg xmlns="http://www.w3.org/2000/svg" width="14" height="14" viewBox="0 0 14 14" fill="none"><path d="M6.44737 10.5H7.55263V6.26316H6.44737V10.5ZM7 5.00205C7.16861 5.00205 7.30996 4.94501 7.42405 4.83092C7.53814 4.71683 7.59518 4.57548 7.59518 4.40687C7.59518 4.23825 7.53814 4.0969 7.42405 3.98282C7.30996 3.86885 7.16861 3.81187 7 3.81187C6.83139 3.81187 6.69004 3.86885 6.57595 3.98282C6.46186 4.0969 6.40482 4.23825 6.40482 4.40687C6.40482 4.57548 6.46186 4.71683 6.57595 4.83092C6.69004 4.94501 6.83139 5.00205 7 5.00205ZM7.00129 14C6.03308 14 5.12302 13.8163 4.2711 13.4488C3.41919 13.0814 2.67818 12.5827 2.04805 11.9529C1.41793 11.323 0.919026 10.5823 0.551342 9.73074C0.183781 8.87919 0 7.96938 0 7.00129C0 6.03308 0.183719 5.12302 0.551158 4.2711C0.918596 3.41919 1.41725 2.67818 2.04713 2.04805C2.67701 1.41793 3.41772 0.919026 4.26926 0.551342C5.12081 0.183781 6.03062 0 6.99871 0C7.96692 0 8.87698 0.183719 9.72889 0.551158C10.5808 0.918596 11.3218 1.41725 11.9519 2.04713C12.5821 2.67701 13.081 3.41772 13.4487 4.26926C13.8162 5.12081 14 6.03062 14 6.99871C14 7.96692 13.8163 8.87698 13.4488 9.72889C13.0814 10.5808 12.5827 11.3218 11.9529 11.9519C11.323 12.5821 10.5823 13.081 9.73074 13.4487C8.87919 13.8162 7.96938 14 7.00129 14ZM7 12.8947C8.64561 12.8947 10.0395 12.3237 11.1816 11.1816C12.3237 10.0395 12.8947 8.64561 12.8947 7C12.8947 5.35439 12.3237 3.96053 11.1816 2.81842C10.0395 1.67632 8.64561 1.10526 7 1.10526C5.35439 1.10526 3.96053 1.67632 2.81842 2.81842C1.67632 3.96053 1.10526 5.35439 1.10526 7C1.10526 8.64561 1.67632 10.0395 2.81842 11.1816C3.96053 12.3237 5.35439 12.8947 7 12.8947Z" fill="#5F6368"></path></svg>