<svg xmlns="http://www.w3.org/2000/svg" width="17" height="13" viewBox="0 0 17 13" fill="none"><path d="M0 13V11.05H1.78858V1.56672C1.78858 1.13584 1.94687 0.767 2.26345 0.4602C2.58003 0.1534 2.96062 0 3.40523 0H16.0972V1.3H3.40523C3.32489 1.3 3.25894 1.32499 3.20737 1.37497C3.1558 1.42494 3.13001 1.48886 3.13001 1.56672V11.05H8.26346V13H0ZM11.2043 13C10.9754 13 10.7834 12.9249 10.6284 12.7747C10.4735 12.6246 10.3961 12.4385 10.3961 12.2165V3.98342C10.3961 3.7614 10.4735 3.57536 10.6284 3.42528C10.7834 3.27506 10.9754 3.19995 11.2043 3.19995H16.1918C16.4207 3.19995 16.6127 3.27506 16.7677 3.42528C16.9226 3.57536 17 3.7614 17 3.98342V12.2165C17 12.4385 16.9226 12.6246 16.7677 12.7747C16.6127 12.9249 16.4207 13 16.1918 13H11.2043ZM11.7376 11.05H15.6586V4.49995H11.7376V11.05Z" fill="#5F6368"></path></svg>